<?xml version="1.0" encoding="UTF-8" standalone="no" ?>
<!DOCTYPE svg PUBLIC "-//W3C//DTD SVG 1.1//EN" "http://www.w3.org/Graphics/SVG/1.1/DTD/svg11.dtd">
<svg xmlns="http://www.w3.org/2000/svg" xmlns:xlink="http://www.w3.org/1999/xlink" version="1.1" width="1280" height="1024" viewBox="0 0 1280 1024" xml:space="preserve">
<desc>Created with Fabric.js 3.6.3</desc>
<defs>
</defs>
<g transform="matrix(1.9692780337941629 0 0 1.9692780337941629 640.0153846153846 512.012312418764)" id="background-logo"  >
<rect style="stroke: none; stroke-width: 1; stroke-dasharray: none; stroke-linecap: butt; stroke-dashoffset: 0; stroke-linejoin: miter; stroke-miterlimit: 4; fill: rgb(0,0,0); fill-rule: nonzero; opacity: 1;"  paint-order="stroke"  x="-325" y="-260" rx="0" ry="0" width="650" height="520" />
</g>
<g transform="matrix(1.9692780337941629 0 0 1.9692780337941629 640.0153846153846 437.0504291633167)" id="logo-logo"  >
<g style=""  paint-order="stroke"   >
		<g transform="matrix(0.996141318290573 -0.9961413182905734 0.9961413182905737 0.9961413182905723 5.684342e-14 0)"  >
<g style=""  paint-order="stroke"   >
		<g transform="matrix(1 0 0 1 0 0)"  >
<path style="stroke: none; stroke-width: 1; stroke-dasharray: none; stroke-linecap: butt; stroke-dashoffset: 0; stroke-linejoin: miter; stroke-miterlimit: 4; fill: rgb(255,255,255); fill-rule: nonzero; opacity: 1;"  paint-order="stroke"  transform=" translate(-95, -100)" d="M 190 94 L 95 0 L 0 94 l 6.11 6 L 0 106 l 95 94 l 95 -94 l -6.11 -6 Z M 2.83 94 L 95 2.8 L 187.17 94 l -4.69 4.64 L 95 12.09 L 7.52 98.6 Z m 178.23 6 L 95 185.12 L 8.94 100 L 95 14.88 Z m 6.11 6 L 95 197.2 L 2.83 106 l 4.69 -4.64 L 95 187.91 l 87.48 -86.51 Z" stroke-linecap="round" />
</g>
</g>
</g>
</g>
</g>
<g transform="matrix(1.9692780337941629 0 0 1.9692780337941629 646.1237042978443 770.3362697651635)" id="text-logo-path"  >
<path style="stroke: none; stroke-width: 1; stroke-dasharray: none; stroke-linecap: butt; stroke-dashoffset: 0; stroke-linejoin: miter; stroke-miterlimit: 10; fill: rgb(255,255,255); fill-rule: nonzero; opacity: 1;"  paint-order="stroke"  transform=" translate(-125.92999999999999, 26.585)" d="M 39.82 0 L 7.63 0 L 7.63 -53.92 L 41.58 -53.92 L 18.01 -30.49 L 35.27 -30.49 L 35.27 -28.2 L 12.41 -28.2 L 35.94 -51.58 L 9.93 -51.58 L 9.93 -2.29 L 39.82 -2.29 L 39.82 0 Z M 64.37 0.75 L 45.12 -44.67 L 47.56 -44.67 L 64.37 -5.15 L 81.14 -44.67 L 83.62 -44.67 L 64.37 0.75 Z M 94.52 -4.7 Q 90.35 -10.15 90.35 -22.33 Q 90.35 -34.51 94.52 -39.97 Q 98.69 -45.42 108.32 -45.42 L 108.32 -45.42 Q 119.49 -45.42 123.47 -38.12 L 123.47 -38.12 L 104.6 -22.33 L 100.99 -22.33 L 120.46 -38.58 Q 117.08 -43.12 108.32 -43.12 L 108.32 -43.12 Q 104.48 -43.12 101.85 -42.32 Q 99.22 -41.51 97.02 -39.31 Q 94.82 -37.11 93.75 -32.92 Q 92.68 -28.72 92.68 -22.33 Q 92.68 -15.94 93.75 -11.75 Q 94.82 -7.56 97.02 -5.36 Q 99.22 -3.16 101.83 -2.35 Q 104.45 -1.54 108.32 -1.54 L 108.32 -1.54 Q 117.08 -1.54 120.46 -6.09 L 120.46 -6.09 L 122.15 -4.55 Q 117.91 0.75 108.3 0.75 Q 98.69 0.75 94.52 -4.7 Z M 136.78 0 L 134.49 0 L 134.49 -44.67 L 136.78 -44.67 L 161.9 -4.25 L 161.9 -44.67 L 164.19 -44.67 L 164.19 0 L 161.9 0 L 136.78 -40.49 L 136.78 0 Z M 189.19 -42.33 L 173.02 -42.33 L 173.02 -44.67 L 207.69 -44.67 L 207.69 -42.33 L 191.48 -42.33 L 191.48 0 L 189.19 0 L 189.19 -42.33 Z M 208.18 0 L 205.73 0 L 224.98 -45.42 L 244.23 0 L 215.66 0 L 215.66 -2.29 L 240.78 -2.29 L 224.98 -39.52 L 208.18 0 Z" stroke-linecap="round" />
</g>
<g transform="matrix(1.9692780337941629 0 0 1.9692780337941629 649.0781021293055 433.3865392322459)" id="tagline-2619fc7c-e4a9-4d1e-9b8c-e24c023b51d3-logo-path"  >
<path style="stroke: none; stroke-width: 0; stroke-dasharray: none; stroke-linecap: butt; stroke-dashoffset: 0; stroke-linejoin: miter; stroke-miterlimit: 4; fill: rgb(255,255,255); fill-rule: nonzero; opacity: 1;"  paint-order="stroke"  transform=" translate(-46.34, 50.765)" d="M 74.98 0 L 14.37 0 L 14.37 -101.53 L 78.31 -101.53 L 33.91 -57.42 L 66.41 -57.42 L 66.41 -53.1 L 23.36 -53.1 L 67.69 -97.14 L 18.69 -97.14 L 18.69 -4.32 L 74.98 -4.32 L 74.98 0 Z" stroke-linecap="round" />
</g>
</svg>